<svg xmlns="http://www.w3.org/2000/svg" viewBox="0 0 32 40" x="0px" y="0px"><title>photo, image, picture, image placeholder, landscape</title><g data-name="Layer 2"><path d="M8.983,16.6a3.013,3.013,0,0,1,4.074-.157l4.078,3.495,2.8-2.456a3.007,3.007,0,0,1,4.1.133L30,23.55V5a3,3,0,0,0-3-3H5A3,3,0,0,0,2,5V23.586ZM18,6a4,4,0,1,1-4,4A4,4,0,0,1,18,6Z"/><path d="M22.62,19.034a1,1,0,0,0-1.369-.046l-2.582,2.268,2.315,1.985a1,1,0,1,1-1.3,1.518l-7.928-6.8a1,1,0,0,0-1.358.053L2,26.414V27a3,3,0,0,0,3,3H27a3,3,0,0,0,3-3v-.63Z"/></g><text x="0" y="47" fill="#000000" font-size="5px" font-weight="bold" font-family="'Helvetica Neue', Helvetica, Arial-Unicode, Arial, Sans-serif">Created by Saepul Nahwan</text><text x="0" y="52" fill="#000000" font-size="5px" font-weight="bold" font-family="'Helvetica Neue', Helvetica, Arial-Unicode, Arial, Sans-serif">from the Noun Project</text></svg>